<?xml version="1.0" encoding="UTF-8" standalone="no"?><!DOCTYPE svg PUBLIC "-//W3C//DTD SVG 1.1//EN" "http://www.w3.org/Graphics/SVG/1.1/DTD/svg11.dtd"><svg width="100%" height="100%" viewBox="0 0 263 174" version="1.1" xmlns="http://www.w3.org/2000/svg" xmlns:xlink="http://www.w3.org/1999/xlink" xml:space="preserve" xmlns:serif="http://www.serif.com/" style="fill-rule:evenodd;clip-rule:evenodd;stroke-linejoin:round;stroke-miterlimit:2;"><path d="M193.247,107.779c-2.777,0.25 -4.71,0.517 -4.71,0.517c-0.441,-0 -0.799,0.357 -0.799,0.798c0,0.441 0.358,0.798 0.799,0.798c-0,0 2.626,0.363 6.154,0.638l0.013,0.024c1.852,3.25 3.087,6.543 3.825,9.864c1.157,5.214 1.058,10.511 -0.15,15.923c-1.128,5.056 -3.162,10.191 -5.953,15.417c-3.655,6.844 -8.537,13.828 -14.384,20.903c-0.236,0.266 -0.213,0.673 0.053,0.909c0.265,0.237 0.672,0.213 0.909,-0.052c6.475,-6.748 12.001,-13.455 16.185,-20.164c3.332,-5.343 5.801,-10.683 7.279,-15.988c1.68,-6.031 2.067,-12.033 0.929,-17.956c-0.557,-2.902 -1.507,-5.776 -2.837,-8.632c1.425,-0.024 2.834,-0.13 4.151,-0.225c3.908,-0.284 6.931,-0.661 6.931,-0.661c0.441,0 0.799,-0.357 0.799,-0.798c-0,-0.441 -0.358,-0.798 -0.799,-0.798c0,-0 -3.023,-0.377 -6.931,-0.661c-1.462,-0.106 -3.038,-0.224 -4.621,-0.23c-0.428,-0.002 -0.854,0.004 -1.279,0.015c-3.912,-6.875 -6.675,-12.893 -7.654,-18.129c-0.853,-4.558 -0.344,-8.479 2.307,-11.8c3.31,-4.212 8.226,-6.593 13.219,-6.423c4.746,0.162 9.52,2.554 13.125,7.721c0.192,0.299 0.591,0.386 0.89,0.194c0.299,-0.192 0.386,-0.591 0.194,-0.89c-3.565,-6.063 -8.755,-9.037 -14.026,-9.606c-5.93,-0.639 -11.973,1.848 -16.262,6.592c-3.629,4.078 -4.743,9.053 -3.891,14.948c0.746,5.161 3.11,11.069 6.534,17.752Zm-45.178,0c-2.777,0.25 -4.71,0.517 -4.71,0.517c-0.441,-0 -0.798,0.357 -0.798,0.798c-0,0.441 0.357,0.798 0.798,0.798c-0,0 2.626,0.363 6.154,0.638l0.013,0.024c1.852,3.25 3.087,6.543 3.825,9.864c1.158,5.214 1.058,10.511 -0.15,15.923c-1.128,5.056 -3.162,10.191 -5.952,15.417c-3.656,6.844 -8.538,13.828 -14.384,20.903c-0.237,0.266 -0.213,0.673 0.052,0.909c0.265,0.237 0.673,0.213 0.909,-0.052c6.476,-6.748 12.001,-13.455 16.185,-20.164c3.332,-5.343 5.802,-10.683 7.279,-15.988c1.68,-6.031 2.068,-12.033 0.929,-17.956c-0.557,-2.902 -1.507,-5.776 -2.836,-8.632c1.424,-0.024 2.834,-0.13 4.15,-0.225c3.908,-0.284 6.932,-0.661 6.932,-0.661c0.44,0 0.798,-0.357 0.798,-0.798c0,-0.441 -0.358,-0.798 -0.798,-0.798c-0,-0 -3.024,-0.377 -6.932,-0.661c-1.461,-0.106 -3.037,-0.224 -4.621,-0.23c-0.427,-0.002 -0.854,0.004 -1.279,0.015c-3.912,-6.875 -6.675,-12.893 -7.654,-18.129c-0.852,-4.558 -0.343,-8.479 2.308,-11.8c3.31,-4.212 8.226,-6.593 13.218,-6.423c4.746,0.162 9.52,2.554 13.126,7.721c0.192,0.299 0.59,0.386 0.889,0.194c0.299,-0.192 0.386,-0.591 0.194,-0.89c-3.565,-6.063 -8.755,-9.037 -14.026,-9.606c-5.93,-0.639 -11.972,1.848 -16.261,6.592c-3.63,4.078 -4.743,9.053 -3.891,14.948c0.746,5.161 3.109,11.069 6.533,17.752Zm81.01,23.993c1.972,-4.32 4.264,-7.111 7.067,-8.845c3.021,-1.868 6.626,-2.488 11.01,-2.531c3.245,-0.034 7.943,-3.442 10.075,-7.585c1.506,-2.926 1.724,-6.159 -0.305,-8.851c-1.876,-2.48 -5.115,-3.694 -8.963,-3.588c-4.003,0.111 -8.686,1.672 -12.976,4.564c-5.6,3.83 -10.504,9.751 -12.198,15.913c-1.276,4.641 -0.776,9.409 2.369,13.57c4.409,5.758 11.476,6.244 18.376,3.693c9.697,-3.584 18.881,-13.08 18.829,-19.95c0.004,-0.375 -0.296,-0.682 -0.67,-0.686c-0.374,-0.005 -0.682,0.295 -0.686,0.67c-0.174,5.396 -6.699,12.155 -14.193,15.951c-6.969,3.531 -14.922,4.596 -19.277,-1.447c-2.477,-3.387 -2.743,-7.224 -1.695,-10.952c1.545,-5.495 5.905,-10.775 10.894,-14.216c3.73,-2.611 7.814,-4.085 11.335,-4.254c2.849,-0.136 5.322,0.554 6.753,2.36c1.834,2.304 0.979,5.247 -0.69,7.684c-1.865,2.723 -4.796,4.928 -7.031,5.017c-4.775,0.192 -8.671,1.03 -11.897,3.169c-2.97,1.969 -5.391,5.035 -7.37,9.77c-0.15,0.343 0.007,0.743 0.35,0.893c0.343,0.15 0.743,-0.007 0.893,-0.349Zm-135.512,-17.062c3.459,-2.38 9.973,-4.417 16.59,-5.543c6.436,-1.095 12.984,-1.344 16.974,-0.02c0.856,3.795 1.385,7.704 1.621,11.707c0.34,5.752 0.116,11.676 -0.637,17.699c-0.055,0.351 0.185,0.68 0.536,0.735c0.351,0.055 0.681,-0.185 0.736,-0.536c1.382,-7.345 2.028,-14.597 1.667,-21.613c-0.255,-4.954 -1.014,-9.783 -2.328,-14.426c-1.665,-5.887 -4.22,-11.484 -7.818,-16.639c-3.35,-4.802 -7.632,-9.195 -12.863,-13.154c-0.563,-0.428 -1.322,-0.495 -1.952,-0.173c-0.63,0.321 -1.021,0.975 -1.006,1.682c0.273,8.959 -1.919,17.861 -6.406,26.746c-5.478,10.844 -14.346,21.656 -26.508,32.425c-0,0 -21.49,0.339 -21.49,0.339c-0.356,-0 -0.644,0.288 -0.644,0.644c-0,0.355 0.288,0.643 0.644,0.643l21.87,0.345c0.236,-0 0.464,-0.085 0.643,-0.238c8.172,-6.817 14.978,-13.689 20.371,-20.623Zm12.257,-43.925c-11.029,-7.575 -22.941,-12.443 -35.364,-14.643c-5.449,-0.965 -10.991,-1.4 -16.591,-1.334c-4.406,0.052 -8.846,0.423 -13.3,1.115c-6.446,1.002 -12.933,2.642 -19.37,4.984c-6.733,2.45 -13.396,5.694 -19.991,9.555c-0.824,0.475 -1.292,1.39 -1.196,2.335c1.78,14.568 6.589,27.145 14.562,37.663c7.65,10.093 18.173,18.271 31.502,24.589c0.257,0.131 0.573,0.028 0.704,-0.229c0.131,-0.258 0.028,-0.573 -0.23,-0.704c-12.622,-6.856 -22.379,-15.377 -29.354,-25.547c-6.812,-9.933 -10.925,-21.461 -12.238,-34.675c5.955,-3.286 11.985,-5.973 17.998,-8.187c6.141,-2.261 12.275,-4.01 18.403,-5.146c4.233,-0.786 8.451,-1.305 12.652,-1.542c10.754,-0.607 21.36,0.634 31.621,3.85c6.718,2.106 13.283,5.008 19.626,8.797c0.243,0.156 0.568,0.086 0.724,-0.157c0.156,-0.244 0.085,-0.568 -0.158,-0.724Zm20.873,36.554c-0.318,-1.244 -0.673,-2.475 -1.065,-3.692c-1.762,-5.469 -4.311,-10.632 -7.752,-15.432c-2.552,-3.561 -5.585,-6.932 -9.195,-10.039c-0.491,8.223 -2.886,16.384 -7.199,24.457c-1.391,2.604 -2.982,5.2 -4.771,7.789c3.694,-1.447 8.378,-2.628 13.117,-3.315c6.276,-0.91 12.631,-0.957 16.865,0.232Zm-92.608,-54.302c0,-0 4.99,-2.58 8.169,-7.027c1.444,-2.021 2.467,-4.426 2.626,-7.106c0.11,-2.345 -0.102,-4.196 -0.502,-5.806c-0.559,-2.25 -1.45,-4.009 -2.212,-6.067c-0.58,-1.566 -1.12,-3.312 -1.268,-5.721c-0.168,-2.152 0.37,-3.615 1.238,-4.601c1.762,-2.003 4.545,-2.194 4.545,-2.194c0.375,-0 0.679,-0.304 0.679,-0.679c-0,-0.374 -0.304,-0.678 -0.679,-0.678c0,0 -3.526,-0.171 -6.027,2.09c-1.35,1.22 -2.367,3.142 -2.445,6.132c-0.02,1.46 0.088,2.722 0.287,3.858c0.395,2.249 1.107,3.99 1.818,5.772c0.843,2.111 1.704,4.287 1.698,7.834c0.051,2.767 -1.138,5.232 -2.609,7.252c-2.575,3.538 -5.995,5.766 -5.995,5.766c-0.324,0.187 -0.436,0.602 -0.249,0.926c0.187,0.324 0.602,0.436 0.926,0.249Zm32.547,-0c0,-0 4.99,-2.58 8.169,-7.027c1.444,-2.021 2.467,-4.426 2.626,-7.106c0.11,-2.345 -0.103,-4.196 -0.502,-5.806c-0.559,-2.25 -1.45,-4.009 -2.212,-6.067c-0.58,-1.566 -1.12,-3.312 -1.268,-5.721c-0.168,-2.152 0.37,-3.615 1.237,-4.601c1.763,-2.003 4.546,-2.194 4.546,-2.194c0.375,-0 0.678,-0.304 0.678,-0.679c0,-0.374 -0.303,-0.678 -0.678,-0.678c0,0 -3.526,-0.171 -6.027,2.09c-1.35,1.22 -2.367,3.142 -2.445,6.132c-0.02,1.46 0.088,2.722 0.287,3.858c0.395,2.249 1.107,3.99 1.818,5.772c0.843,2.111 1.704,4.287 1.698,7.834c0.051,2.767 -1.138,5.232 -2.609,7.252c-2.575,3.538 -5.995,5.766 -5.995,5.766c-0.325,0.187 -0.436,0.602 -0.249,0.926c0.187,0.324 0.602,0.436 0.926,0.249Zm-18.345,-0.79c0,-0 6.488,-3.442 10.58,-9.293c1.835,-2.625 3.149,-5.732 3.322,-9.187c0.123,-3.043 -0.167,-5.443 -0.692,-7.53c-0.742,-2.954 -1.917,-5.262 -2.906,-7.97c-0.771,-2.109 -1.46,-4.469 -1.631,-7.708c-0.195,-2.972 0.611,-4.976 1.827,-6.32c2.435,-2.691 6.239,-2.881 6.239,-2.881c0.374,0 0.678,-0.304 0.678,-0.678c0,-0.374 -0.304,-0.678 -0.678,-0.678c0,-0 -4.547,-0.174 -7.72,2.775c-1.699,1.579 -2.984,4.041 -3.035,7.851c-0.008,1.897 0.146,3.536 0.415,5.009c0.537,2.932 1.482,5.2 2.411,7.526c1.133,2.838 2.254,5.777 2.224,10.543c0.033,3.746 -1.611,7.07 -3.63,9.784c-3.479,4.673 -8.081,7.582 -8.081,7.582c-0.324,0.187 -0.436,0.602 -0.249,0.926c0.187,0.324 0.602,0.436 0.926,0.249Z" style="fill:#fff;"/></svg>