<?xml version="1.0" encoding="UTF-8" standalone="no"?><!DOCTYPE svg PUBLIC "-//W3C//DTD SVG 1.1//EN" "http://www.w3.org/Graphics/SVG/1.1/DTD/svg11.dtd"><svg width="100%" height="100%" viewBox="0 0 1373 1370" version="1.1" xmlns="http://www.w3.org/2000/svg" xmlns:xlink="http://www.w3.org/1999/xlink" xml:space="preserve" xmlns:serif="http://www.serif.com/" style="fill-rule:evenodd;clip-rule:evenodd;stroke-linejoin:round;stroke-miterlimit:2;"><g><path d="M13.784,682.989c0,374.516 306.118,677.561 681.86,672.467c360.911,-4.894 656.058,-298.321 663.013,-659.196c6.819,-353.851 -259.753,-646.96 -602.711,-682.228c-29.445,-3.028 -54.711,21.342 -52.494,50.86c4.226,56.259 2.83,113.867 -17.14,132.681c-43.002,40.407 -114.61,14.571 -156.79,60.643c-27.792,30.356 20.244,76.707 -12.723,113.722c-14.522,16.304 -63.119,12.954 -81.646,24.505c-48.191,30.047 -68.931,35.803 -107.872,76.691c-11.261,11.824 -36.069,23.938 -52.25,26.125c-76.093,10.282 -61.001,-21.822 -84.275,-32.868c-49.722,-23.596 -27.791,-26.137 -96.097,-26.137c-0.086,-0 -0.173,-0 -0.259,-0.001c-21.138,-0.143 -40.427,12.27 -47.041,32.347c-21.798,66.168 -33.575,136.915 -33.575,210.389" style="fill:#512f1e;fill-rule:nonzero;"/><path d="M751.052,27.561c1.157,-0 2.32,0.06 3.486,0.183c337.584,34.714 596.893,328.243 590.338,668.25c-6.767,351.263 -298.096,640.916 -649.417,645.68c-177.89,2.407 -345.317,-64.966 -471.763,-189.708c-126.475,-124.774 -196.13,-291.326 -196.13,-468.98c-0,-70.5 11.063,-139.838 32.883,-206.074c4.517,-13.712 17.993,-22.875 33.582,-22.875c45.934,-0.028 47.326,0.667 61.396,9.033c6.353,3.779 15.051,8.953 29.42,15.774c3.473,1.648 5.365,4.334 8.681,9.341c11.979,18.079 26.515,32.416 83.349,24.733c19.621,-2.648 47.275,-16.517 60.384,-30.278c27.676,-29.057 45.55,-39.409 72.605,-55.081c9.438,-5.47 20.133,-11.661 32.581,-19.425c5.765,-3.591 19.319,-5.728 31.277,-7.607c20.625,-3.246 41.95,-6.606 53.366,-19.419c21.904,-24.599 15.791,-52.077 10.881,-74.156c-4.291,-19.296 -6.329,-30.639 1.717,-39.426c18.634,-20.356 45.218,-24.377 73.362,-28.642c28.968,-4.382 58.917,-8.921 82.7,-31.262c20.267,-19.097 27.277,-66.119 21.447,-143.763c-0.747,-9.923 2.95,-19.63 10.142,-26.629c6.415,-6.239 14.905,-9.669 23.713,-9.669m-64.817,1341.74c3.203,-0 6.387,-0.021 9.596,-0.064c178.152,-2.417 346.405,-73.483 473.772,-200.115c127.366,-126.631 199.401,-294.47 202.833,-472.603c3.348,-173.675 -58.333,-340.593 -173.678,-470.014c-114.394,-128.348 -271.153,-208.679 -441.401,-226.188c-18.187,-1.847 -36.117,4.388 -49.241,17.153c-13.055,12.705 -19.766,30.364 -18.409,48.454c6.934,92.31 -6.674,115.799 -12.845,121.619c-17.511,16.453 -42.005,20.162 -67.939,24.087c-30.165,4.566 -64.357,9.744 -89.566,37.278c-18.13,19.8 -12.906,43.296 -8.294,64.023c4.953,22.268 7.117,36.733 -4.558,49.838c-4.856,5.453 -23.473,8.388 -37.069,10.524c-15.966,2.515 -31.049,4.889 -41.571,11.453c-12.068,7.52 -22.558,13.598 -31.813,18.956c-28.068,16.258 -48.349,28.005 -78.748,59.92c-8.838,9.277 -30.69,20.163 -44.117,21.977c-44.322,5.981 -50.056,-2.648 -56.681,-12.641c-4.138,-6.24 -9.281,-14.008 -19.839,-19.021c-13.204,-6.267 -20.937,-10.864 -27.148,-14.558c-19.252,-11.451 -24.663,-12.91 -74.862,-12.91l-0.467,-0c-27.689,-0 -51.666,16.754 -59.922,41.816c-22.738,69.025 -34.268,141.264 -34.268,214.699c-0,185.084 72.569,358.607 204.339,488.604c129.455,127.714 300.274,197.713 481.896,197.713" style="fill:#301c12;fill-rule:nonzero;"/><path d="M27.685,687.69c-0,366.307 299.438,662.725 666.931,657.765c250.26,-3.398 468.221,-148.616 576.285,-358.595c-118.74,155.41 -304.94,256.839 -513.626,259.643c-367.545,5.016 -666.932,-291.405 -666.932,-657.709c-0,-47.507 5.016,-93.827 14.613,-138.477c-20.059,0.379 -38.124,12.457 -44.432,31.599c-21.3,64.709 -32.839,133.893 -32.839,205.774" style="fill:#331e13;fill-rule:nonzero;"/><path d="M870.854,323.967c-0,33.511 27.167,60.678 60.679,60.678c33.51,0 60.677,-27.167 60.677,-60.678c-0,-33.512 -27.167,-60.678 -60.677,-60.678c-33.512,0 -60.679,27.166 -60.679,60.678" style="fill:#210f04;fill-rule:nonzero;"/><path d="M931.532,277.072c25.858,-0 46.896,21.034 46.896,46.893c0,25.858 -21.038,46.898 -46.896,46.898c-25.858,-0 -46.896,-21.04 -46.896,-46.898c0,-25.859 21.038,-46.893 46.896,-46.893m0,121.355c41.057,-0 74.46,-33.406 74.46,-74.462c0,-41.057 -33.403,-74.457 -74.46,-74.457c-41.057,-0 -74.461,33.4 -74.461,74.457c0,41.056 33.404,74.462 74.461,74.462" style="fill:#160a03;fill-rule:nonzero;"/><path d="M1104.72,574.263c-0,16.058 13.017,29.075 29.074,29.075c16.058,0 29.075,-13.017 29.075,-29.075c-0,-16.058 -13.017,-29.075 -29.075,-29.075c-16.057,0 -29.074,13.017 -29.074,29.075" style="fill:#210f04;fill-rule:nonzero;"/><path d="M1133.79,558.971c8.434,0 15.293,6.859 15.293,15.29c0,8.437 -6.859,15.295 -15.293,15.295c-8.434,0 -15.293,-6.858 -15.293,-15.295c0,-8.431 6.859,-15.29 15.293,-15.29m0,58.15c23.632,0 42.857,-19.225 42.857,-42.86c0,-23.63 -19.225,-42.854 -42.857,-42.854c-23.632,0 -42.857,19.224 -42.857,42.854c0,23.635 19.225,42.86 42.857,42.86" style="fill:#160a03;fill-rule:nonzero;"/><path d="M635.728,499.232c-0,16.058 13.017,29.074 29.074,29.074c16.058,-0 29.075,-13.016 29.075,-29.074c-0,-16.058 -13.017,-29.075 -29.075,-29.075c-16.057,-0 -29.074,13.017 -29.074,29.075" style="fill:#210f04;fill-rule:nonzero;"/><path d="M664.802,483.938c8.434,-0 15.292,6.858 15.292,15.295c-0,8.431 -6.858,15.29 -15.292,15.29c-8.435,-0 -15.293,-6.859 -15.293,-15.29c-0,-8.437 6.858,-15.295 15.293,-15.295m-0,58.149c23.632,-0 42.857,-19.225 42.857,-42.854c-0,-23.635 -19.225,-42.86 -42.857,-42.86c-23.633,-0 -42.858,19.225 -42.858,42.86c-0,23.629 19.225,42.854 42.858,42.854" style="fill:#160a03;fill-rule:nonzero;"/><path d="M762.14,720.902c-0,33.511 27.166,60.678 60.678,60.678c33.511,-0 60.677,-27.167 60.677,-60.678c-0,-33.512 -27.166,-60.679 -60.677,-60.679c-33.512,-0 -60.678,27.167 -60.678,60.679" style="fill:#210f04;fill-rule:nonzero;"/><path d="M822.818,674.006c25.858,0 46.896,21.034 46.896,46.893c-0,25.858 -21.038,46.897 -46.896,46.897c-25.858,0 -46.896,-21.039 -46.896,-46.897c-0,-25.859 21.038,-46.893 46.896,-46.893m-0,121.355c41.057,0 74.46,-33.406 74.46,-74.462c-0,-41.057 -33.403,-74.458 -74.46,-74.458c-41.057,0 -74.46,33.401 -74.46,74.458c-0,41.056 33.403,74.462 74.46,74.462" style="fill:#160a03;fill-rule:nonzero;"/><path d="M922.683,968.003c-0,33.512 27.167,60.678 60.678,60.678c33.511,0 60.678,-27.166 60.678,-60.678c-0,-33.512 -27.167,-60.678 -60.678,-60.678c-33.511,0 -60.678,27.166 -60.678,60.678" style="fill:#210f04;fill-rule:nonzero;"/><path d="M983.362,921.11c25.857,-0 46.895,21.035 46.895,46.893c0,25.858 -21.038,46.898 -46.896,46.898c-25.858,-0 -46.896,-21.04 -46.896,-46.898c0,-25.858 21.038,-46.893 46.896,-46.893m0,121.355c41.057,-0 74.46,-33.406 74.46,-74.462c0,-41.056 -33.403,-74.457 -74.46,-74.457c-41.057,-0 -74.46,33.401 -74.46,74.457c0,41.056 33.403,74.462 74.46,74.462" style="fill:#160a03;fill-rule:nonzero;"/><path d="M514.371,1135.53c0,33.512 27.167,60.678 60.678,60.678c33.511,-0 60.678,-27.166 60.678,-60.678c0,-33.512 -27.167,-60.678 -60.678,-60.678c-33.511,-0 -60.678,27.166 -60.678,60.678" style="fill:#210f04;fill-rule:nonzero;"/><path d="M575.049,1088.64c25.857,0 46.895,21.04 46.895,46.897c-0,25.859 -21.038,46.893 -46.895,46.893c-25.858,0 -46.896,-21.034 -46.896,-46.893c-0,-25.857 21.038,-46.897 46.896,-46.897m-0,121.355c41.057,0 74.46,-33.401 74.46,-74.458c-0,-41.056 -33.403,-74.462 -74.46,-74.462c-41.057,0 -74.461,33.406 -74.461,74.462c-0,41.057 33.404,74.458 74.461,74.458" style="fill:#160a03;fill-rule:nonzero;"/><path d="M462.628,862.92c0,17.26 13.992,31.252 31.252,31.252c17.26,0 31.251,-13.992 31.251,-31.252c0,-17.26 -13.991,-31.251 -31.251,-31.251c-17.26,0 -31.252,13.991 -31.252,31.251" style="fill:#210f04;fill-rule:nonzero;"/><path d="M493.88,845.453c9.632,-0 17.468,7.838 17.468,17.47c0,9.632 -7.836,17.465 -17.468,17.465c-9.634,-0 -17.47,-7.833 -17.47,-17.465c0,-9.632 7.836,-17.47 17.47,-17.47m0,62.5c24.83,-0 45.033,-20.2 45.033,-45.03c0,-24.83 -20.203,-45.035 -45.033,-45.035c-24.832,-0 -45.035,20.205 -45.035,45.035c0,24.83 20.203,45.03 45.035,45.03" style="fill:#160a03;fill-rule:nonzero;"/><path d="M165.474,720.902c-0,33.511 27.166,60.678 60.678,60.678c33.511,-0 60.677,-27.167 60.677,-60.678c-0,-33.512 -27.166,-60.679 -60.677,-60.679c-33.512,-0 -60.678,27.167 -60.678,60.679" style="fill:#210f04;fill-rule:nonzero;"/><path d="M226.151,674.006c25.858,0 46.896,21.034 46.896,46.893c-0,25.858 -21.038,46.897 -46.896,46.897c-25.857,0 -46.895,-21.039 -46.895,-46.897c-0,-25.859 21.038,-46.893 46.895,-46.893m-0,121.355c41.057,0 74.461,-33.406 74.461,-74.462c-0,-41.057 -33.404,-74.458 -74.461,-74.458c-41.057,0 -74.46,33.401 -74.46,74.458c-0,41.056 33.403,74.462 74.46,74.462" style="fill:#160a03;fill-rule:nonzero;"/></g></svg>