<?xml version="1.0" encoding="UTF-8" standalone="no"?><!DOCTYPE svg PUBLIC "-//W3C//DTD SVG 1.1//EN" "http://www.w3.org/Graphics/SVG/1.1/DTD/svg11.dtd"><svg width="100%" height="100%" viewBox="0 0 146 146" version="1.1" xmlns="http://www.w3.org/2000/svg" xmlns:xlink="http://www.w3.org/1999/xlink" xml:space="preserve" xmlns:serif="http://www.serif.com/" style="fill-rule:evenodd;clip-rule:evenodd;stroke-linejoin:round;stroke-miterlimit:2;"><g><path d="M145.98,36.495c-0,-20.142 -16.353,-36.495 -36.495,-36.495l-72.99,0c-20.142,0 -36.495,16.353 -36.495,36.495l0,72.99c0,20.142 16.353,36.495 36.495,36.495l72.99,-0c20.142,-0 36.495,-16.353 36.495,-36.495l-0,-72.99Z"/><path d="M92.63,104.609c2.428,-1.67 6.998,-3.1 11.641,-3.89c4.516,-0.768 9.111,-0.943 11.911,-0.013c0.6,2.662 0.971,5.405 1.137,8.214c0.238,4.036 0.081,8.193 -0.447,12.419c-0.039,0.246 0.13,0.477 0.376,0.516c0.246,0.039 0.478,-0.13 0.516,-0.376c0.97,-5.154 1.424,-10.243 1.17,-15.165c-0.179,-3.477 -0.711,-6.865 -1.633,-10.123c-1.169,-4.131 -2.962,-8.058 -5.486,-11.676c-2.351,-3.369 -5.355,-6.452 -9.025,-9.23c-0.396,-0.299 -0.928,-0.346 -1.37,-0.121c-0.442,0.226 -0.717,0.684 -0.706,1.18c0.191,6.287 -1.347,12.533 -4.496,18.768c-3.843,7.609 -10.065,15.195 -18.6,22.752c0,-0 -15.079,0.237 -15.079,0.237c-0.249,0 -0.451,0.203 -0.451,0.452c-0,0.249 0.202,0.452 0.451,0.452l15.346,0.241c0.166,0 0.326,-0.059 0.452,-0.167c5.734,-4.782 10.509,-9.605 14.293,-14.47Zm8.601,-30.821c-7.739,-5.316 -16.097,-8.731 -24.815,-10.275c-3.823,-0.677 -7.711,-0.982 -11.641,-0.936c-3.091,0.037 -6.207,0.297 -9.332,0.783c-4.523,0.703 -9.075,1.853 -13.591,3.497c-4.725,1.719 -9.4,3.995 -14.028,6.704c-0.578,0.334 -0.906,0.975 -0.839,1.639c1.249,10.222 4.623,19.047 10.218,26.427c5.367,7.082 12.751,12.82 22.104,17.254c0.181,0.091 0.402,0.019 0.494,-0.162c0.092,-0.18 0.02,-0.402 -0.161,-0.494c-8.857,-4.81 -15.703,-10.789 -20.597,-17.925c-4.78,-6.97 -7.666,-15.059 -8.588,-24.331c4.179,-2.305 8.41,-4.191 12.629,-5.744c4.309,-1.587 8.613,-2.814 12.913,-3.612c2.97,-0.55 5.93,-0.915 8.877,-1.081c7.546,-0.426 14.989,0.445 22.189,2.701c4.713,1.478 9.32,3.514 13.771,6.173c0.17,0.11 0.398,0.06 0.508,-0.111c0.109,-0.17 0.06,-0.398 -0.111,-0.507Zm14.646,25.649c-0.223,-0.873 -0.472,-1.737 -0.747,-2.59c-1.237,-3.839 -3.025,-7.461 -5.439,-10.829c-1.792,-2.499 -3.919,-4.864 -6.453,-7.044c-0.344,5.77 -2.024,11.496 -5.051,17.16c-0.976,1.828 -2.093,3.65 -3.348,5.466c2.592,-1.015 5.879,-1.844 9.205,-2.326c4.403,-0.638 8.862,-0.671 11.833,0.163Zm-64.981,-38.103c0,-0 3.502,-1.81 5.732,-4.93c1.014,-1.419 1.731,-3.106 1.843,-4.986c0.077,-1.646 -0.072,-2.945 -0.353,-4.075c-0.392,-1.579 -1.017,-2.813 -1.552,-4.256c-0.407,-1.099 -0.786,-2.325 -0.889,-4.015c-0.118,-1.51 0.259,-2.536 0.868,-3.228c1.236,-1.406 3.19,-1.54 3.19,-1.54c0.262,0 0.475,-0.213 0.475,-0.476c0,-0.262 -0.213,-0.476 -0.475,-0.476c-0,0 -2.475,-0.12 -4.23,1.466c-0.947,0.857 -1.661,2.206 -1.715,4.303c-0.014,1.025 0.061,1.911 0.201,2.707c0.277,1.578 0.777,2.8 1.276,4.05c0.591,1.482 1.195,3.009 1.192,5.497c0.035,1.942 -0.799,3.671 -1.831,5.089c-1.807,2.482 -4.207,4.046 -4.207,4.046c-0.228,0.131 -0.306,0.422 -0.175,0.649c0.132,0.228 0.423,0.306 0.65,0.175Zm22.838,-0c-0,-0 3.501,-1.81 5.731,-4.93c1.014,-1.419 1.732,-3.106 1.843,-4.986c0.077,-1.646 -0.072,-2.945 -0.352,-4.075c-0.392,-1.579 -1.018,-2.813 -1.552,-4.256c-0.407,-1.099 -0.786,-2.325 -0.89,-4.015c-0.118,-1.51 0.26,-2.536 0.868,-3.228c1.237,-1.406 3.19,-1.54 3.19,-1.54c0.263,0 0.476,-0.213 0.476,-0.476c-0,-0.262 -0.213,-0.476 -0.476,-0.476c0,0 -2.474,-0.12 -4.229,1.466c-0.947,0.857 -1.661,2.206 -1.716,4.303c-0.014,1.025 0.062,1.911 0.202,2.707c0.277,1.578 0.776,2.8 1.275,4.05c0.592,1.482 1.196,3.009 1.192,5.497c0.036,1.942 -0.799,3.671 -1.831,5.089c-1.807,2.482 -4.207,4.046 -4.207,4.046c-0.227,0.131 -0.305,0.422 -0.174,0.649c0.131,0.228 0.422,0.306 0.65,0.175Zm-12.872,-0.554c-0,-0 4.552,-2.415 7.423,-6.521c1.288,-1.842 2.21,-4.021 2.331,-6.446c0.086,-2.135 -0.117,-3.819 -0.485,-5.283c-0.521,-2.073 -1.346,-3.693 -2.04,-5.593c-0.541,-1.48 -1.024,-3.136 -1.144,-5.409c-0.137,-2.085 0.429,-3.491 1.282,-4.434c1.708,-1.889 4.378,-2.022 4.378,-2.022c0.262,0 0.476,-0.213 0.476,-0.475c-0,-0.263 -0.214,-0.476 -0.476,-0.476c-0,-0 -3.191,-0.123 -5.417,1.947c-1.192,1.108 -2.094,2.835 -2.13,5.509c-0.005,1.331 0.102,2.481 0.291,3.515c0.377,2.057 1.04,3.648 1.692,5.28c0.795,1.992 1.582,4.054 1.561,7.398c0.023,2.628 -1.131,4.961 -2.548,6.865c-2.441,3.28 -5.67,5.32 -5.67,5.32c-0.227,0.132 -0.306,0.423 -0.174,0.65c0.131,0.228 0.422,0.306 0.65,0.175Z" style="fill:#fff;"/></g></svg>